# xmcd
#
# Track frame offsets:
#	182
#	16377
#	32525
#	48387
#	61355
#	74662
#	88740
#	102790
#	117897
#	129312
#	143745
#
# Disc length: 2218 seconds
#
# Revision: 3
# Processed by: cddbd v1.5.2PL0 Copyright (c) Steve Scherf et al.
# Submitted via: audiograbber 1.83.01
#
DISCID=9308a80b
DTITLE=Eric Clapton - Eric Clapton
DYEAR=1970
DGENRE=Rock
TTITLE0=Slunky
TTITLE1=Bad Boy
TTITLE2=Lonesome and a Long Way from Home
TTITLE3=After Midnight
TTITLE4=Easy Now
TTITLE5=Blues Power
TTITLE6=Bottle of Red Wine
TTITLE7=Lovin' You Lovin' Me
TTITLE8=Told You for the Last Time
TTITLE9=Don't Know Why
TTITLE10=Let It Rain
EXTD=
EXTT0=
EXTT1=
EXTT2=
EXTT3=
EXTT4=
EXTT5=
EXTT6=
EXTT7=
EXTT8=
EXTT9=
EXTT10=
PLAYORDER=
